<?xml version="1.0" encoding="utf-8" standalone="no"?>
<!DOCTYPE svg PUBLIC "-//W3C//DTD SVG 1.1//EN"
  "http://www.w3.org/Graphics/SVG/1.1/DTD/svg11.dtd">
<!-- Created with matplotlib (http://matplotlib.org/) -->
<svg height="345.6pt" version="1.1" viewBox="0 0 460.8 345.6" width="460.8pt" xmlns="http://www.w3.org/2000/svg" xmlns:xlink="http://www.w3.org/1999/xlink">
 <defs>
  <style type="text/css">
*{stroke-linecap:butt;stroke-linejoin:round;}
  </style>
 </defs>
 <g id="figure_1">
  <g id="patch_1">
   <path d="M 0 345.6 
L 460.8 345.6 
L 460.8 0 
L 0 0 
z
" style="fill:#ffffff;"/>
  </g>
  <g id="axes_1">
   <g id="patch_2">
    <path clip-path="url(#pd085748177)" d="M 57.6 177.512727 
L 405.792 177.512727 
L 405.792 147.027273 
L 57.6 147.027273 
z
" style="fill:none;stroke:#000000;stroke-linejoin:miter;"/>
   </g>
   <g id="line2d_1">
    <path clip-path="url(#pd085748177)" d="M 68.3136 165.996 
L 395.0784 165.996 
" style="fill:none;stroke:#000000;stroke-linecap:square;stroke-width:1.5;"/>
   </g>
   <g id="line2d_2">
    <path clip-path="url(#pd085748177)" d="M 293.2992 145.672364 
L 304.0128 145.672364 
" style="fill:none;stroke:#ffbf2b;stroke-linecap:square;stroke-width:1.5;"/>
   </g>
   <g id="line2d_3">
    <path clip-path="url(#pd085748177)" d="M 137.952 145.672364 
L 137.952 123.373597 
" style="fill:none;stroke:#ffbf2b;stroke-linecap:square;stroke-width:1.5;"/>
   </g>
   <g id="line2d_4">
    <path clip-path="url(#pd085748177)" d="M 137.952 123.373597 
L 298.656 123.373597 
" style="fill:none;stroke:#ffbf2b;stroke-linecap:square;stroke-width:1.5;"/>
   </g>
   <g id="line2d_5">
    <path clip-path="url(#pd085748177)" d="M 298.656 123.373597 
L 298.656 145.672364 
" style="fill:none;stroke:#ffbf2b;stroke-linecap:square;stroke-width:1.5;"/>
   </g>
   <g id="line2d_6">
    <path clip-path="url(#pd085748177)" d="M 79.0272 145.672364 
L 89.7408 145.672364 
" style="fill:none;stroke:#61d152;stroke-linecap:square;stroke-width:1.5;"/>
   </g>
   <g id="line2d_7">
    <path clip-path="url(#pd085748177)" d="M 245.088 145.672364 
L 245.088 130.127489 
" style="fill:none;stroke:#61d152;stroke-linecap:square;stroke-width:1.5;"/>
   </g>
   <g id="line2d_8">
    <path clip-path="url(#pd085748177)" d="M 245.088 130.127489 
L 84.384 130.127489 
" style="fill:none;stroke:#61d152;stroke-linecap:square;stroke-width:1.5;"/>
   </g>
   <g id="line2d_9">
    <path clip-path="url(#pd085748177)" d="M 84.384 130.127489 
L 84.384 145.672364 
" style="fill:none;stroke:#61d152;stroke-linecap:square;stroke-width:1.5;"/>
   </g>
   <g id="line2d_10">
    <path clip-path="url(#pd085748177)" d="M 186.1632 145.672364 
L 196.8768 145.672364 
" style="fill:none;stroke:#61a6de;stroke-linecap:square;stroke-width:1.5;"/>
   </g>
   <g id="line2d_11">
    <path clip-path="url(#pd085748177)" d="M 352.224 145.672364 
L 352.224 129.4474 
" style="fill:none;stroke:#61a6de;stroke-linecap:square;stroke-width:1.5;"/>
   </g>
   <g id="line2d_12">
    <path clip-path="url(#pd085748177)" d="M 352.224 129.4474 
L 191.52 129.4474 
" style="fill:none;stroke:#61a6de;stroke-linecap:square;stroke-width:1.5;"/>
   </g>
   <g id="line2d_13">
    <path clip-path="url(#pd085748177)" d="M 191.52 129.4474 
L 191.52 145.672364 
" style="fill:none;stroke:#61a6de;stroke-linecap:square;stroke-width:1.5;"/>
   </g>
   <g id="patch_3">
    <path clip-path="url(#pd085748177)" d="M 89.955072 149.737091 
L 95.0976 154.289585 
L 89.955072 158.84208 
" style="fill:#ffffff;stroke:#61d152;stroke-linejoin:miter;stroke-width:2;"/>
   </g>
   <g id="patch_4">
    <path clip-path="url(#pd085748177)" d="M 73.6704 165.996 
L 73.6704 154.289585 
L 95.0976 154.289585 
" style="fill:#ffffff;stroke:#61d152;stroke-linejoin:miter;stroke-width:2;"/>
   </g>
   <g id="patch_5">
    <path clip-path="url(#pd085748177)" d="M 100.4544 165.996 
L 121.8816 165.996 
L 121.8816 162.869287 
C 121.8816 156.61586 116.936862 153.489147 111.168 153.489147 
C 105.399138 153.489147 100.4544 156.61586 100.4544 162.869287 
L 100.4544 165.996 
" style="fill:#ffffff;stroke:#000000;stroke-linejoin:miter;stroke-width:2;"/>
   </g>
   <g id="patch_6">
    <path clip-path="url(#pd085748177)" d="M 127.2384 171.415636 
L 141.908149 171.415636 
L 148.6656 166.04118 
L 141.908149 160.666724 
L 127.2384 160.666724 
L 127.2384 171.415636 
" style="fill:#ffbf2b;stroke:#000000;stroke-linejoin:miter;stroke-width:2;"/>
   </g>
   <g id="patch_7">
    <path clip-path="url(#pd085748177)" d="M 164.736 165.996 
L 164.736 152.988873 
" style="fill:#ffffff;stroke:#000000;stroke-linejoin:miter;stroke-width:2;"/>
   </g>
   <g id="patch_8">
    <path clip-path="url(#pd085748177)" d="M 154.0224 152.446909 
L 175.4496 152.446909 
" style="fill:#ffffff;stroke:#000000;stroke-linejoin:miter;stroke-width:2;"/>
   </g>
   <g id="patch_9">
    <path clip-path="url(#pd085748177)" d="M 197.091072 149.737091 
L 202.2336 154.289585 
L 197.091072 158.84208 
" style="fill:#ffffff;stroke:#61a6de;stroke-linejoin:miter;stroke-width:2;"/>
   </g>
   <g id="patch_10">
    <path clip-path="url(#pd085748177)" d="M 180.8064 165.996 
L 180.8064 154.289585 
L 202.2336 154.289585 
" style="fill:#ffffff;stroke:#61a6de;stroke-linejoin:miter;stroke-width:2;"/>
   </g>
   <g id="patch_11">
    <path clip-path="url(#pd085748177)" d="M 207.5904 165.996 
L 229.0176 165.996 
L 229.0176 162.869287 
C 229.0176 156.61586 224.072862 153.489147 218.304 153.489147 
C 212.535138 153.489147 207.5904 156.61586 207.5904 162.869287 
L 207.5904 165.996 
" style="fill:#ffffff;stroke:#000000;stroke-linejoin:miter;stroke-width:2;"/>
   </g>
   <g id="patch_12">
    <path clip-path="url(#pd085748177)" d="M 234.3744 171.415636 
L 249.044149 171.415636 
L 255.8016 166.04118 
L 249.044149 160.666724 
L 234.3744 160.666724 
L 234.3744 171.415636 
" style="fill:#61d152;stroke:#000000;stroke-linejoin:miter;stroke-width:2;"/>
   </g>
   <g id="patch_13">
    <path clip-path="url(#pd085748177)" d="M 271.872 165.996 
L 271.872 152.988873 
" style="fill:#ffffff;stroke:#000000;stroke-linejoin:miter;stroke-width:2;"/>
   </g>
   <g id="patch_14">
    <path clip-path="url(#pd085748177)" d="M 261.1584 152.446909 
L 282.5856 152.446909 
" style="fill:#ffffff;stroke:#000000;stroke-linejoin:miter;stroke-width:2;"/>
   </g>
   <g id="patch_15">
    <path clip-path="url(#pd085748177)" d="M 304.227072 149.737091 
L 309.3696 154.289585 
L 304.227072 158.84208 
" style="fill:#ffffff;stroke:#ffbf2b;stroke-linejoin:miter;stroke-width:2;"/>
   </g>
   <g id="patch_16">
    <path clip-path="url(#pd085748177)" d="M 287.9424 165.996 
L 287.9424 154.289585 
L 309.3696 154.289585 
" style="fill:#ffffff;stroke:#ffbf2b;stroke-linejoin:miter;stroke-width:2;"/>
   </g>
   <g id="patch_17">
    <path clip-path="url(#pd085748177)" d="M 314.7264 165.996 
L 336.1536 165.996 
L 336.1536 162.869287 
C 336.1536 156.61586 331.208862 153.489147 325.44 153.489147 
C 319.671138 153.489147 314.7264 156.61586 314.7264 162.869287 
L 314.7264 165.996 
" style="fill:#ffffff;stroke:#000000;stroke-linejoin:miter;stroke-width:2;"/>
   </g>
   <g id="patch_18">
    <path clip-path="url(#pd085748177)" d="M 341.5104 171.415636 
L 356.180149 171.415636 
L 362.9376 166.04118 
L 356.180149 160.666724 
L 341.5104 160.666724 
L 341.5104 171.415636 
" style="fill:#61a6de;stroke:#000000;stroke-linejoin:miter;stroke-width:2;"/>
   </g>
   <g id="patch_19">
    <path clip-path="url(#pd085748177)" d="M 379.008 165.996 
L 379.008 152.988873 
" style="fill:#ffffff;stroke:#000000;stroke-linejoin:miter;stroke-width:2;"/>
   </g>
   <g id="patch_20">
    <path clip-path="url(#pd085748177)" d="M 368.2944 152.446909 
L 389.7216 152.446909 
" style="fill:#ffffff;stroke:#000000;stroke-linejoin:miter;stroke-width:2;"/>
   </g>
  </g>
  <g id="axes_2">
   <g id="patch_21">
    <path d="M 57.6 307.584 
L 414.72 307.584 
L 414.72 199.191273 
L 57.6 199.191273 
z
" style="fill:#ffffff;"/>
   </g>
   <g id="matplotlib.axis_1">
    <g id="xtick_1">
     <g id="line2d_14">
      <defs>
       <path d="M 0 0 
L 0 3 
" id="md78bda2372" style="stroke:#000000;stroke-width:0.8;"/>
      </defs>
      <g>
       <use style="stroke:#000000;stroke-width:0.8;" x="73.832727" xlink:href="#md78bda2372" y="307.584"/>
      </g>
     </g>
     <g id="text_1">
      <!-- 0 -->
      <defs>
       <path d="M 31.78125 66.40625 
Q 24.171875 66.40625 20.328125 58.90625 
Q 16.5 51.421875 16.5 36.375 
Q 16.5 21.390625 20.328125 13.890625 
Q 24.171875 6.390625 31.78125 6.390625 
Q 39.453125 6.390625 43.28125 13.890625 
Q 47.125 21.390625 47.125 36.375 
Q 47.125 51.421875 43.28125 58.90625 
Q 39.453125 66.40625 31.78125 66.40625 
z
M 31.78125 74.21875 
Q 44.046875 74.21875 50.515625 64.515625 
Q 56.984375 54.828125 56.984375 36.375 
Q 56.984375 17.96875 50.515625 8.265625 
Q 44.046875 -1.421875 31.78125 -1.421875 
Q 19.53125 -1.421875 13.0625 8.265625 
Q 6.59375 17.96875 6.59375 36.375 
Q 6.59375 54.828125 13.0625 64.515625 
Q 19.53125 74.21875 31.78125 74.21875 
z
" id="DejaVuSans-30"/>
      </defs>
      <g transform="translate(71.287727 320.16275)scale(0.08 -0.08)">
       <use xlink:href="#DejaVuSans-30"/>
      </g>
     </g>
    </g>
    <g id="xtick_2">
     <g id="line2d_15">
      <g>
       <use style="stroke:#000000;stroke-width:0.8;" x="127.941818" xlink:href="#md78bda2372" y="307.584"/>
      </g>
     </g>
     <g id="text_2">
      <!-- 5 -->
      <defs>
       <path d="M 10.796875 72.90625 
L 49.515625 72.90625 
L 49.515625 64.59375 
L 19.828125 64.59375 
L 19.828125 46.734375 
Q 21.96875 47.46875 24.109375 47.828125 
Q 26.265625 48.1875 28.421875 48.1875 
Q 40.625 48.1875 47.75 41.5 
Q 54.890625 34.8125 54.890625 23.390625 
Q 54.890625 11.625 47.5625 5.09375 
Q 40.234375 -1.421875 26.90625 -1.421875 
Q 22.3125 -1.421875 17.546875 -0.640625 
Q 12.796875 0.140625 7.71875 1.703125 
L 7.71875 11.625 
Q 12.109375 9.234375 16.796875 8.0625 
Q 21.484375 6.890625 26.703125 6.890625 
Q 35.15625 6.890625 40.078125 11.328125 
Q 45.015625 15.765625 45.015625 23.390625 
Q 45.015625 31 40.078125 35.4375 
Q 35.15625 39.890625 26.703125 39.890625 
Q 22.75 39.890625 18.8125 39.015625 
Q 14.890625 38.140625 10.796875 36.28125 
z
" id="DejaVuSans-35"/>
      </defs>
      <g transform="translate(125.396818 320.16275)scale(0.08 -0.08)">
       <use xlink:href="#DejaVuSans-35"/>
      </g>
     </g>
    </g>
    <g id="xtick_3">
     <g id="line2d_16">
      <g>
       <use style="stroke:#000000;stroke-width:0.8;" x="182.050909" xlink:href="#md78bda2372" y="307.584"/>
      </g>
     </g>
     <g id="text_3">
      <!-- 10 -->
      <defs>
       <path d="M 12.40625 8.296875 
L 28.515625 8.296875 
L 28.515625 63.921875 
L 10.984375 60.40625 
L 10.984375 69.390625 
L 28.421875 72.90625 
L 38.28125 72.90625 
L 38.28125 8.296875 
L 54.390625 8.296875 
L 54.390625 0 
L 12.40625 0 
z
" id="DejaVuSans-31"/>
      </defs>
      <g transform="translate(176.960909 320.16275)scale(0.08 -0.08)">
       <use xlink:href="#DejaVuSans-31"/>
       <use x="63.623047" xlink:href="#DejaVuSans-30"/>
      </g>
     </g>
    </g>
    <g id="xtick_4">
     <g id="line2d_17">
      <g>
       <use style="stroke:#000000;stroke-width:0.8;" x="236.16" xlink:href="#md78bda2372" y="307.584"/>
      </g>
     </g>
     <g id="text_4">
      <!-- 15 -->
      <g transform="translate(231.07 320.16275)scale(0.08 -0.08)">
       <use xlink:href="#DejaVuSans-31"/>
       <use x="63.623047" xlink:href="#DejaVuSans-35"/>
      </g>
     </g>
    </g>
    <g id="xtick_5">
     <g id="line2d_18">
      <g>
       <use style="stroke:#000000;stroke-width:0.8;" x="290.269091" xlink:href="#md78bda2372" y="307.584"/>
      </g>
     </g>
     <g id="text_5">
      <!-- 20 -->
      <defs>
       <path d="M 19.1875 8.296875 
L 53.609375 8.296875 
L 53.609375 0 
L 7.328125 0 
L 7.328125 8.296875 
Q 12.9375 14.109375 22.625 23.890625 
Q 32.328125 33.6875 34.8125 36.53125 
Q 39.546875 41.84375 41.421875 45.53125 
Q 43.3125 49.21875 43.3125 52.78125 
Q 43.3125 58.59375 39.234375 62.25 
Q 35.15625 65.921875 28.609375 65.921875 
Q 23.96875 65.921875 18.8125 64.3125 
Q 13.671875 62.703125 7.8125 59.421875 
L 7.8125 69.390625 
Q 13.765625 71.78125 18.9375 73 
Q 24.125 74.21875 28.421875 74.21875 
Q 39.75 74.21875 46.484375 68.546875 
Q 53.21875 62.890625 53.21875 53.421875 
Q 53.21875 48.921875 51.53125 44.890625 
Q 49.859375 40.875 45.40625 35.40625 
Q 44.1875 33.984375 37.640625 27.21875 
Q 31.109375 20.453125 19.1875 8.296875 
z
" id="DejaVuSans-32"/>
      </defs>
      <g transform="translate(285.179091 320.16275)scale(0.08 -0.08)">
       <use xlink:href="#DejaVuSans-32"/>
       <use x="63.623047" xlink:href="#DejaVuSans-30"/>
      </g>
     </g>
    </g>
    <g id="xtick_6">
     <g id="line2d_19">
      <g>
       <use style="stroke:#000000;stroke-width:0.8;" x="344.378182" xlink:href="#md78bda2372" y="307.584"/>
      </g>
     </g>
     <g id="text_6">
      <!-- 25 -->
      <g transform="translate(339.288182 320.16275)scale(0.08 -0.08)">
       <use xlink:href="#DejaVuSans-32"/>
       <use x="63.623047" xlink:href="#DejaVuSans-35"/>
      </g>
     </g>
    </g>
    <g id="xtick_7">
     <g id="line2d_20">
      <g>
       <use style="stroke:#000000;stroke-width:0.8;" x="398.487273" xlink:href="#md78bda2372" y="307.584"/>
      </g>
     </g>
     <g id="text_7">
      <!-- 30 -->
      <defs>
       <path d="M 40.578125 39.3125 
Q 47.65625 37.796875 51.625 33 
Q 55.609375 28.21875 55.609375 21.1875 
Q 55.609375 10.40625 48.1875 4.484375 
Q 40.765625 -1.421875 27.09375 -1.421875 
Q 22.515625 -1.421875 17.65625 -0.515625 
Q 12.796875 0.390625 7.625 2.203125 
L 7.625 11.71875 
Q 11.71875 9.328125 16.59375 8.109375 
Q 21.484375 6.890625 26.8125 6.890625 
Q 36.078125 6.890625 40.9375 10.546875 
Q 45.796875 14.203125 45.796875 21.1875 
Q 45.796875 27.640625 41.28125 31.265625 
Q 36.765625 34.90625 28.71875 34.90625 
L 20.21875 34.90625 
L 20.21875 43.015625 
L 29.109375 43.015625 
Q 36.375 43.015625 40.234375 45.921875 
Q 44.09375 48.828125 44.09375 54.296875 
Q 44.09375 59.90625 40.109375 62.90625 
Q 36.140625 65.921875 28.71875 65.921875 
Q 24.65625 65.921875 20.015625 65.03125 
Q 15.375 64.15625 9.8125 62.3125 
L 9.8125 71.09375 
Q 15.4375 72.65625 20.34375 73.4375 
Q 25.25 74.21875 29.59375 74.21875 
Q 40.828125 74.21875 47.359375 69.109375 
Q 53.90625 64.015625 53.90625 55.328125 
Q 53.90625 49.265625 50.4375 45.09375 
Q 46.96875 40.921875 40.578125 39.3125 
z
" id="DejaVuSans-33"/>
      </defs>
      <g transform="translate(393.397273 320.16275)scale(0.08 -0.08)">
       <use xlink:href="#DejaVuSans-33"/>
       <use x="63.623047" xlink:href="#DejaVuSans-30"/>
      </g>
     </g>
    </g>
    <g id="text_8">
     <!-- Time -->
     <defs>
      <path d="M -0.296875 72.90625 
L 61.375 72.90625 
L 61.375 64.59375 
L 35.5 64.59375 
L 35.5 0 
L 25.59375 0 
L 25.59375 64.59375 
L -0.296875 64.59375 
z
" id="DejaVuSans-54"/>
      <path d="M 9.421875 54.6875 
L 18.40625 54.6875 
L 18.40625 0 
L 9.421875 0 
z
M 9.421875 75.984375 
L 18.40625 75.984375 
L 18.40625 64.59375 
L 9.421875 64.59375 
z
" id="DejaVuSans-69"/>
      <path d="M 52 44.1875 
Q 55.375 50.25 60.0625 53.125 
Q 64.75 56 71.09375 56 
Q 79.640625 56 84.28125 50.015625 
Q 88.921875 44.046875 88.921875 33.015625 
L 88.921875 0 
L 79.890625 0 
L 79.890625 32.71875 
Q 79.890625 40.578125 77.09375 44.375 
Q 74.3125 48.1875 68.609375 48.1875 
Q 61.625 48.1875 57.5625 43.546875 
Q 53.515625 38.921875 53.515625 30.90625 
L 53.515625 0 
L 44.484375 0 
L 44.484375 32.71875 
Q 44.484375 40.625 41.703125 44.40625 
Q 38.921875 48.1875 33.109375 48.1875 
Q 26.21875 48.1875 22.15625 43.53125 
Q 18.109375 38.875 18.109375 30.90625 
L 18.109375 0 
L 9.078125 0 
L 9.078125 54.6875 
L 18.109375 54.6875 
L 18.109375 46.1875 
Q 21.1875 51.21875 25.484375 53.609375 
Q 29.78125 56 35.6875 56 
Q 41.65625 56 45.828125 52.96875 
Q 50 49.953125 52 44.1875 
z
" id="DejaVuSans-6d"/>
      <path d="M 56.203125 29.59375 
L 56.203125 25.203125 
L 14.890625 25.203125 
Q 15.484375 15.921875 20.484375 11.0625 
Q 25.484375 6.203125 34.421875 6.203125 
Q 39.59375 6.203125 44.453125 7.46875 
Q 49.3125 8.734375 54.109375 11.28125 
L 54.109375 2.78125 
Q 49.265625 0.734375 44.1875 -0.34375 
Q 39.109375 -1.421875 33.890625 -1.421875 
Q 20.796875 -1.421875 13.15625 6.1875 
Q 5.515625 13.8125 5.515625 26.8125 
Q 5.515625 40.234375 12.765625 48.109375 
Q 20.015625 56 32.328125 56 
Q 43.359375 56 49.78125 48.890625 
Q 56.203125 41.796875 56.203125 29.59375 
z
M 47.21875 32.234375 
Q 47.125 39.59375 43.09375 43.984375 
Q 39.0625 48.390625 32.421875 48.390625 
Q 24.90625 48.390625 20.390625 44.140625 
Q 15.875 39.890625 15.1875 32.171875 
z
" id="DejaVuSans-65"/>
     </defs>
     <g transform="translate(226.25 328.90525)scale(0.08 -0.08)">
      <use xlink:href="#DejaVuSans-54"/>
      <use x="61.037109" xlink:href="#DejaVuSans-69"/>
      <use x="88.820312" xlink:href="#DejaVuSans-6d"/>
      <use x="186.232422" xlink:href="#DejaVuSans-65"/>
     </g>
    </g>
   </g>
   <g id="matplotlib.axis_2">
    <g id="ytick_1">
     <g id="line2d_21">
      <defs>
       <path d="M 0 0 
L -3 0 
" id="m7a38cb7718" style="stroke:#000000;stroke-width:0.8;"/>
      </defs>
      <g>
       <use style="stroke:#000000;stroke-width:0.8;" x="57.6" xlink:href="#m7a38cb7718" y="307.584"/>
      </g>
     </g>
     <g id="text_9">
      <!-- 1.0 -->
      <defs>
       <path d="M 10.6875 12.40625 
L 21 12.40625 
L 21 0 
L 10.6875 0 
z
" id="DejaVuSans-2e"/>
      </defs>
      <g transform="translate(38.3775 310.623375)scale(0.08 -0.08)">
       <use xlink:href="#DejaVuSans-31"/>
       <use x="63.623047" xlink:href="#DejaVuSans-2e"/>
       <use x="95.410156" xlink:href="#DejaVuSans-30"/>
      </g>
     </g>
    </g>
    <g id="ytick_2">
     <g id="line2d_22">
      <g>
       <use style="stroke:#000000;stroke-width:0.8;" x="57.6" xlink:href="#m7a38cb7718" y="289.518545"/>
      </g>
     </g>
     <g id="text_10">
      <!-- 1.5 -->
      <g transform="translate(38.3775 292.55792)scale(0.08 -0.08)">
       <use xlink:href="#DejaVuSans-31"/>
       <use x="63.623047" xlink:href="#DejaVuSans-2e"/>
       <use x="95.410156" xlink:href="#DejaVuSans-35"/>
      </g>
     </g>
    </g>
    <g id="ytick_3">
     <g id="line2d_23">
      <g>
       <use style="stroke:#000000;stroke-width:0.8;" x="57.6" xlink:href="#m7a38cb7718" y="271.453091"/>
      </g>
     </g>
     <g id="text_11">
      <!-- 2.0 -->
      <g transform="translate(38.3775 274.492466)scale(0.08 -0.08)">
       <use xlink:href="#DejaVuSans-32"/>
       <use x="63.623047" xlink:href="#DejaVuSans-2e"/>
       <use x="95.410156" xlink:href="#DejaVuSans-30"/>
      </g>
     </g>
    </g>
    <g id="ytick_4">
     <g id="line2d_24">
      <g>
       <use style="stroke:#000000;stroke-width:0.8;" x="57.6" xlink:href="#m7a38cb7718" y="253.387636"/>
      </g>
     </g>
     <g id="text_12">
      <!-- 2.5 -->
      <g transform="translate(38.3775 256.427011)scale(0.08 -0.08)">
       <use xlink:href="#DejaVuSans-32"/>
       <use x="63.623047" xlink:href="#DejaVuSans-2e"/>
       <use x="95.410156" xlink:href="#DejaVuSans-35"/>
      </g>
     </g>
    </g>
    <g id="ytick_5">
     <g id="line2d_25">
      <g>
       <use style="stroke:#000000;stroke-width:0.8;" x="57.6" xlink:href="#m7a38cb7718" y="235.322182"/>
      </g>
     </g>
     <g id="text_13">
      <!-- 3.0 -->
      <g transform="translate(38.3775 238.361557)scale(0.08 -0.08)">
       <use xlink:href="#DejaVuSans-33"/>
       <use x="63.623047" xlink:href="#DejaVuSans-2e"/>
       <use x="95.410156" xlink:href="#DejaVuSans-30"/>
      </g>
     </g>
    </g>
    <g id="ytick_6">
     <g id="line2d_26">
      <g>
       <use style="stroke:#000000;stroke-width:0.8;" x="57.6" xlink:href="#m7a38cb7718" y="217.256727"/>
      </g>
     </g>
     <g id="text_14">
      <!-- 3.5 -->
      <g transform="translate(38.3775 220.296102)scale(0.08 -0.08)">
       <use xlink:href="#DejaVuSans-33"/>
       <use x="63.623047" xlink:href="#DejaVuSans-2e"/>
       <use x="95.410156" xlink:href="#DejaVuSans-35"/>
      </g>
     </g>
    </g>
    <g id="ytick_7">
     <g id="line2d_27">
      <g>
       <use style="stroke:#000000;stroke-width:0.8;" x="57.6" xlink:href="#m7a38cb7718" y="199.191273"/>
      </g>
     </g>
     <g id="text_15">
      <!-- 4.0 -->
      <defs>
       <path d="M 37.796875 64.3125 
L 12.890625 25.390625 
L 37.796875 25.390625 
z
M 35.203125 72.90625 
L 47.609375 72.90625 
L 47.609375 25.390625 
L 58.015625 25.390625 
L 58.015625 17.1875 
L 47.609375 17.1875 
L 47.609375 0 
L 37.796875 0 
L 37.796875 17.1875 
L 4.890625 17.1875 
L 4.890625 26.703125 
z
" id="DejaVuSans-34"/>
      </defs>
      <g transform="translate(38.3775 202.230648)scale(0.08 -0.08)">
       <use xlink:href="#DejaVuSans-34"/>
       <use x="63.623047" xlink:href="#DejaVuSans-2e"/>
       <use x="95.410156" xlink:href="#DejaVuSans-30"/>
      </g>
     </g>
    </g>
    <g id="text_16">
     <!-- Protein Concentration -->
     <defs>
      <path d="M 19.671875 64.796875 
L 19.671875 37.40625 
L 32.078125 37.40625 
Q 38.96875 37.40625 42.71875 40.96875 
Q 46.484375 44.53125 46.484375 51.125 
Q 46.484375 57.671875 42.71875 61.234375 
Q 38.96875 64.796875 32.078125 64.796875 
z
M 9.8125 72.90625 
L 32.078125 72.90625 
Q 44.34375 72.90625 50.609375 67.359375 
Q 56.890625 61.8125 56.890625 51.125 
Q 56.890625 40.328125 50.609375 34.8125 
Q 44.34375 29.296875 32.078125 29.296875 
L 19.671875 29.296875 
L 19.671875 0 
L 9.8125 0 
z
" id="DejaVuSans-50"/>
      <path d="M 41.109375 46.296875 
Q 39.59375 47.171875 37.8125 47.578125 
Q 36.03125 48 33.890625 48 
Q 26.265625 48 22.1875 43.046875 
Q 18.109375 38.09375 18.109375 28.8125 
L 18.109375 0 
L 9.078125 0 
L 9.078125 54.6875 
L 18.109375 54.6875 
L 18.109375 46.1875 
Q 20.953125 51.171875 25.484375 53.578125 
Q 30.03125 56 36.53125 56 
Q 37.453125 56 38.578125 55.875 
Q 39.703125 55.765625 41.0625 55.515625 
z
" id="DejaVuSans-72"/>
      <path d="M 30.609375 48.390625 
Q 23.390625 48.390625 19.1875 42.75 
Q 14.984375 37.109375 14.984375 27.296875 
Q 14.984375 17.484375 19.15625 11.84375 
Q 23.34375 6.203125 30.609375 6.203125 
Q 37.796875 6.203125 41.984375 11.859375 
Q 46.1875 17.53125 46.1875 27.296875 
Q 46.1875 37.015625 41.984375 42.703125 
Q 37.796875 48.390625 30.609375 48.390625 
z
M 30.609375 56 
Q 42.328125 56 49.015625 48.375 
Q 55.71875 40.765625 55.71875 27.296875 
Q 55.71875 13.875 49.015625 6.21875 
Q 42.328125 -1.421875 30.609375 -1.421875 
Q 18.84375 -1.421875 12.171875 6.21875 
Q 5.515625 13.875 5.515625 27.296875 
Q 5.515625 40.765625 12.171875 48.375 
Q 18.84375 56 30.609375 56 
z
" id="DejaVuSans-6f"/>
      <path d="M 18.3125 70.21875 
L 18.3125 54.6875 
L 36.8125 54.6875 
L 36.8125 47.703125 
L 18.3125 47.703125 
L 18.3125 18.015625 
Q 18.3125 11.328125 20.140625 9.421875 
Q 21.96875 7.515625 27.59375 7.515625 
L 36.8125 7.515625 
L 36.8125 0 
L 27.59375 0 
Q 17.1875 0 13.234375 3.875 
Q 9.28125 7.765625 9.28125 18.015625 
L 9.28125 47.703125 
L 2.6875 47.703125 
L 2.6875 54.6875 
L 9.28125 54.6875 
L 9.28125 70.21875 
z
" id="DejaVuSans-74"/>
      <path d="M 54.890625 33.015625 
L 54.890625 0 
L 45.90625 0 
L 45.90625 32.71875 
Q 45.90625 40.484375 42.875 44.328125 
Q 39.84375 48.1875 33.796875 48.1875 
Q 26.515625 48.1875 22.3125 43.546875 
Q 18.109375 38.921875 18.109375 30.90625 
L 18.109375 0 
L 9.078125 0 
L 9.078125 54.6875 
L 18.109375 54.6875 
L 18.109375 46.1875 
Q 21.34375 51.125 25.703125 53.5625 
Q 30.078125 56 35.796875 56 
Q 45.21875 56 50.046875 50.171875 
Q 54.890625 44.34375 54.890625 33.015625 
z
" id="DejaVuSans-6e"/>
      <path id="DejaVuSans-20"/>
      <path d="M 64.40625 67.28125 
L 64.40625 56.890625 
Q 59.421875 61.53125 53.78125 63.8125 
Q 48.140625 66.109375 41.796875 66.109375 
Q 29.296875 66.109375 22.65625 58.46875 
Q 16.015625 50.828125 16.015625 36.375 
Q 16.015625 21.96875 22.65625 14.328125 
Q 29.296875 6.6875 41.796875 6.6875 
Q 48.140625 6.6875 53.78125 8.984375 
Q 59.421875 11.28125 64.40625 15.921875 
L 64.40625 5.609375 
Q 59.234375 2.09375 53.4375 0.328125 
Q 47.65625 -1.421875 41.21875 -1.421875 
Q 24.65625 -1.421875 15.125 8.703125 
Q 5.609375 18.84375 5.609375 36.375 
Q 5.609375 53.953125 15.125 64.078125 
Q 24.65625 74.21875 41.21875 74.21875 
Q 47.75 74.21875 53.53125 72.484375 
Q 59.328125 70.75 64.40625 67.28125 
z
" id="DejaVuSans-43"/>
      <path d="M 48.78125 52.59375 
L 48.78125 44.1875 
Q 44.96875 46.296875 41.140625 47.34375 
Q 37.3125 48.390625 33.40625 48.390625 
Q 24.65625 48.390625 19.8125 42.84375 
Q 14.984375 37.3125 14.984375 27.296875 
Q 14.984375 17.28125 19.8125 11.734375 
Q 24.65625 6.203125 33.40625 6.203125 
Q 37.3125 6.203125 41.140625 7.25 
Q 44.96875 8.296875 48.78125 10.40625 
L 48.78125 2.09375 
Q 45.015625 0.34375 40.984375 -0.53125 
Q 36.96875 -1.421875 32.421875 -1.421875 
Q 20.0625 -1.421875 12.78125 6.34375 
Q 5.515625 14.109375 5.515625 27.296875 
Q 5.515625 40.671875 12.859375 48.328125 
Q 20.21875 56 33.015625 56 
Q 37.15625 56 41.109375 55.140625 
Q 45.0625 54.296875 48.78125 52.59375 
z
" id="DejaVuSans-63"/>
      <path d="M 34.28125 27.484375 
Q 23.390625 27.484375 19.1875 25 
Q 14.984375 22.515625 14.984375 16.5 
Q 14.984375 11.71875 18.140625 8.90625 
Q 21.296875 6.109375 26.703125 6.109375 
Q 34.1875 6.109375 38.703125 11.40625 
Q 43.21875 16.703125 43.21875 25.484375 
L 43.21875 27.484375 
z
M 52.203125 31.203125 
L 52.203125 0 
L 43.21875 0 
L 43.21875 8.296875 
Q 40.140625 3.328125 35.546875 0.953125 
Q 30.953125 -1.421875 24.3125 -1.421875 
Q 15.921875 -1.421875 10.953125 3.296875 
Q 6 8.015625 6 15.921875 
Q 6 25.140625 12.171875 29.828125 
Q 18.359375 34.515625 30.609375 34.515625 
L 43.21875 34.515625 
L 43.21875 35.40625 
Q 43.21875 41.609375 39.140625 45 
Q 35.0625 48.390625 27.6875 48.390625 
Q 23 48.390625 18.546875 47.265625 
Q 14.109375 46.140625 10.015625 43.890625 
L 10.015625 52.203125 
Q 14.9375 54.109375 19.578125 55.046875 
Q 24.21875 56 28.609375 56 
Q 40.484375 56 46.34375 49.84375 
Q 52.203125 43.703125 52.203125 31.203125 
z
" id="DejaVuSans-61"/>
     </defs>
     <g transform="translate(34.71375 297.133261)rotate(-90)scale(0.08 -0.08)">
      <use xlink:href="#DejaVuSans-50"/>
      <use x="60.287109" xlink:href="#DejaVuSans-72"/>
      <use x="101.369141" xlink:href="#DejaVuSans-6f"/>
      <use x="162.550781" xlink:href="#DejaVuSans-74"/>
      <use x="201.759766" xlink:href="#DejaVuSans-65"/>
      <use x="263.283203" xlink:href="#DejaVuSans-69"/>
      <use x="291.066406" xlink:href="#DejaVuSans-6e"/>
      <use x="354.445312" xlink:href="#DejaVuSans-20"/>
      <use x="386.232422" xlink:href="#DejaVuSans-43"/>
      <use x="456.056641" xlink:href="#DejaVuSans-6f"/>
      <use x="517.238281" xlink:href="#DejaVuSans-6e"/>
      <use x="580.617188" xlink:href="#DejaVuSans-63"/>
      <use x="635.597656" xlink:href="#DejaVuSans-65"/>
      <use x="697.121094" xlink:href="#DejaVuSans-6e"/>
      <use x="760.5" xlink:href="#DejaVuSans-74"/>
      <use x="799.708984" xlink:href="#DejaVuSans-72"/>
      <use x="840.822266" xlink:href="#DejaVuSans-61"/>
      <use x="902.101562" xlink:href="#DejaVuSans-74"/>
      <use x="941.310547" xlink:href="#DejaVuSans-69"/>
      <use x="969.09375" xlink:href="#DejaVuSans-6f"/>
      <use x="1030.275391" xlink:href="#DejaVuSans-6e"/>
     </g>
    </g>
   </g>
   <g id="line2d_28">
    <path clip-path="url(#p58be12b0a4)" d="M 73.832727 271.453091 
L 74.914909 297.001248 
L 75.997091 293.942428 
L 77.079273 292.330584 
L 78.161455 291.311688 
L 79.243636 290.596495 
L 81.408 289.61619 
L 83.572364 288.928625 
L 85.736727 288.416265 
L 87.901091 288.078425 
L 90.065455 287.948285 
L 92.229818 288.046957 
L 94.394182 288.358682 
L 97.640727 289.090275 
L 101.969455 290.053064 
L 104.133818 290.300521 
L 106.298182 290.282427 
L 108.462545 289.955902 
L 110.626909 289.330054 
L 113.873455 288.024934 
L 116.037818 287.162951 
L 118.202182 286.565417 
L 119.284364 286.42813 
L 120.366545 286.419942 
L 121.448727 286.54616 
L 122.530909 286.802668 
L 124.695273 287.648195 
L 127.941818 289.39119 
L 130.106182 290.555336 
L 132.270545 291.487831 
L 133.352727 291.81212 
L 134.434909 292.014853 
L 135.517091 292.077427 
L 136.599273 291.983127 
L 137.681455 291.718227 
L 138.763636 291.273641 
L 139.845818 290.647081 
L 140.928 289.845611 
L 143.092364 287.808758 
L 146.338909 284.404787 
L 147.421091 283.466475 
L 148.503273 282.760709 
L 149.585455 282.352242 
L 150.667636 282.28014 
L 151.749818 282.551171 
L 152.832 283.139599 
L 153.914182 283.993651 
L 156.078545 286.227034 
L 160.407273 291.084717 
L 162.571636 293.074246 
L 163.653818 293.874795 
L 164.736 294.517797 
L 165.818182 294.979139 
L 166.900364 295.231042 
L 167.982545 295.24211 
L 169.064727 294.978363 
L 170.146909 294.405285 
L 171.229091 293.490927 
L 172.311273 292.210109 
L 173.393455 290.549799 
L 174.475636 288.515669 
L 175.557818 286.13965 
L 177.722182 280.666907 
L 179.886545 275.157733 
L 180.968727 272.869902 
L 182.050909 271.169381 
L 183.133091 270.217907 
L 184.215273 270.096085 
L 185.297455 270.781894 
L 186.379636 272.157115 
L 187.461818 274.041309 
L 189.626182 278.573951 
L 191.790545 283.184683 
L 193.954909 287.31254 
L 196.119273 290.812435 
L 198.283636 293.699314 
L 200.448 296.015824 
L 202.612364 297.76926 
L 203.694545 298.417218 
L 204.776727 298.890977 
L 205.858909 299.165424 
L 206.941091 299.208162 
L 208.023273 298.979948 
L 209.105455 298.435818 
L 210.187636 297.527013 
L 211.269818 296.203724 
L 212.352 294.418609 
L 213.434182 292.130964 
L 214.516364 289.311423 
L 215.598545 285.947142 
L 216.680727 282.047498 
L 218.845091 272.82927 
L 223.173818 252.376159 
L 224.256 248.169473 
L 225.338182 244.925085 
L 226.420364 242.92071 
L 227.502545 242.338314 
L 228.584727 243.208969 
L 229.666909 245.389184 
L 230.749091 248.590235 
L 232.913455 256.635549 
L 235.077818 264.963585 
L 237.242182 272.407728 
L 239.406545 278.694399 
L 241.570909 283.897861 
L 243.735273 288.17496 
L 245.899636 291.681003 
L 248.064 294.549261 
L 250.228364 296.886543 
L 252.392727 298.769273 
L 254.557091 300.234201 
L 256.721455 301.261295 
L 257.803636 301.582995 
L 258.885818 301.749665 
L 259.968 301.732115 
L 261.050182 301.493867 
L 262.132364 300.991637 
L 263.214545 300.176529 
L 264.296727 298.996038 
L 265.378909 297.396788 
L 266.461091 295.327876 
L 267.543273 292.744545 
L 268.625455 289.611882 
L 269.707636 285.908274 
L 270.789818 281.628425 
L 271.872 276.785967 
L 274.036364 265.576816 
L 277.282909 246.261809 
L 279.447273 233.526109 
L 280.529455 227.91265 
L 281.611636 223.212178 
L 282.693818 219.752538 
L 283.776 217.830065 
L 284.858182 217.6476 
L 285.940364 219.247741 
L 287.022545 222.472285 
L 288.104727 226.980426 
L 290.269091 238.08199 
L 292.433455 249.494593 
L 294.597818 259.672572 
L 296.762182 268.255565 
L 298.926545 275.352912 
L 301.090909 281.183855 
L 303.255273 285.963967 
L 305.419636 289.879397 
L 307.584 293.084955 
L 309.748364 295.707178 
L 311.912727 297.846909 
L 314.077091 299.578891 
L 316.241455 300.946137 
L 318.405818 301.946778 
L 319.488 302.291591 
L 320.570182 302.51251 
L 321.652364 302.586314 
L 322.734545 302.482667 
L 323.816727 302.16401 
L 324.898909 301.586053 
L 325.981091 300.698999 
L 327.063273 299.44955 
L 328.145455 297.783652 
L 329.227636 295.649818 
L 330.309818 293.002723 
L 331.392 289.806764 
L 332.474182 286.039248 
L 333.556364 281.692975 
L 334.638545 276.778178 
L 336.802909 265.379408 
L 338.967273 252.326308 
L 343.296 225.266996 
L 344.378182 219.490575 
L 345.460364 214.675008 
L 346.542545 211.147574 
L 347.624727 209.211459 
L 348.706909 209.084893 
L 349.789091 210.831014 
L 350.871273 214.308317 
L 351.953455 219.178185 
L 354.117818 231.247451 
L 356.282182 243.737119 
L 358.446545 254.911571 
L 360.610909 264.345558 
L 362.775273 272.148996 
L 364.939636 278.560414 
L 367.104 283.81643 
L 369.268364 288.121828 
L 371.432727 291.647192 
L 373.597091 294.532624 
L 375.761455 296.891664 
L 377.925818 298.81326 
L 380.090182 300.359989 
L 382.254545 301.560352 
L 384.418909 302.392973 
L 385.501091 302.645316 
L 386.583273 302.762894 
L 387.665455 302.718119 
L 388.747636 302.476176 
L 389.829818 301.995253 
L 390.912 301.227449 
L 391.994182 300.120454 
L 393.076364 298.62001 
L 394.158545 296.673014 
L 395.240727 294.231036 
L 396.322909 291.253916 
L 397.405091 287.713105 
L 398.487273 283.594461 
L 398.487273 283.594461 
" style="fill:none;stroke:#ffbf2b;stroke-linecap:square;stroke-width:1.5;"/>
   </g>
   <g id="line2d_29">
    <path clip-path="url(#p58be12b0a4)" d="M 73.832727 307.584 
L 74.914909 296.34727 
L 75.997091 293.161286 
L 77.079273 291.653582 
L 78.161455 290.850699 
L 79.243636 290.411386 
L 81.408 290.050683 
L 87.901091 289.638299 
L 91.147636 289.075873 
L 97.640727 287.717752 
L 99.805091 287.564167 
L 101.969455 287.691874 
L 104.133818 288.09642 
L 107.380364 289.056911 
L 110.626909 290.076245 
L 112.791273 290.568985 
L 114.955636 290.77591 
L 117.12 290.610045 
L 119.284364 290.030712 
L 121.448727 289.070984 
L 126.859636 286.156845 
L 127.941818 285.770434 
L 129.024 285.535029 
L 130.106182 285.473309 
L 131.188364 285.594831 
L 132.270545 285.895032 
L 133.352727 286.356331 
L 135.517091 287.645005 
L 140.928 291.377818 
L 143.092364 292.43677 
L 144.174545 292.773353 
L 145.256727 292.950728 
L 146.338909 292.94641 
L 147.421091 292.739224 
L 148.503273 292.310995 
L 149.585455 291.649023 
L 150.667636 290.749332 
L 151.749818 289.62053 
L 153.914182 286.797714 
L 157.160727 282.182029 
L 158.242909 280.952588 
L 159.325091 280.065651 
L 160.407273 279.605374 
L 161.489455 279.613366 
L 162.571636 280.080574 
L 163.653818 280.951018 
L 164.736 282.136318 
L 166.900364 285.051699 
L 170.146909 289.599321 
L 172.311273 292.22676 
L 174.475636 294.348321 
L 175.557818 295.185837 
L 176.64 295.85188 
L 177.722182 296.323391 
L 178.804364 296.571546 
L 179.886545 296.561975 
L 180.968727 296.255874 
L 182.050909 295.612016 
L 183.133091 294.589726 
L 184.215273 293.15287 
L 185.297455 291.274948 
L 186.379636 288.945366 
L 187.461818 286.176944 
L 189.626182 279.543627 
L 192.872727 268.870724 
L 193.954909 265.977437 
L 195.037091 263.835483 
L 196.119273 262.643735 
L 197.201455 262.500763 
L 198.283636 263.375176 
L 199.365818 265.111741 
L 200.448 267.475093 
L 203.694545 275.978066 
L 205.858909 281.339957 
L 208.023273 285.949148 
L 210.187636 289.792445 
L 212.352 292.954743 
L 214.516364 295.528209 
L 216.680727 297.577023 
L 218.845091 299.112928 
L 219.927273 299.671523 
L 221.009455 300.069387 
L 222.091636 300.281928 
L 223.173818 300.277191 
L 224.256 300.016124 
L 225.338182 299.453484 
L 226.420364 298.539542 
L 227.502545 297.222576 
L 228.584727 295.452102 
L 229.666909 293.18264 
L 230.749091 290.377822 
L 231.831273 287.014636 
L 232.913455 283.087724 
L 233.995636 278.613801 
L 236.16 268.230923 
L 240.488727 245.27111 
L 241.570909 240.340338 
L 242.653091 236.332051 
L 243.735273 233.55967 
L 244.817455 232.273054 
L 245.899636 232.594853 
L 246.981818 234.470395 
L 248.064 237.662164 
L 249.146182 241.803985 
L 254.557091 265.093592 
L 256.721455 272.670125 
L 258.885818 278.958275 
L 261.050182 284.131321 
L 263.214545 288.374119 
L 265.378909 291.849495 
L 267.543273 294.69302 
L 269.707636 297.013514 
L 271.872 298.891978 
L 274.036364 300.375393 
L 276.200727 301.462974 
L 277.282909 301.839743 
L 278.365091 302.084243 
L 279.447273 302.172529 
L 280.529455 302.073446 
L 281.611636 301.748625 
L 282.693818 301.153097 
L 283.776 300.236653 
L 284.858182 298.945992 
L 285.940364 297.227594 
L 287.022545 295.031131 
L 288.104727 292.313121 
L 289.186909 289.040511 
L 290.269091 285.193894 
L 291.351273 280.770189 
L 292.433455 275.784789 
L 294.597818 264.293864 
L 296.762182 251.288168 
L 300.008727 231.332532 
L 301.090909 225.41132 
L 302.173091 220.33048 
L 303.255273 216.417159 
L 304.337455 213.985379 
L 305.419636 213.279961 
L 306.501818 214.407612 
L 307.584 217.280821 
L 308.666182 221.610749 
L 309.748364 226.968148 
L 314.077091 250.573841 
L 316.241455 260.666255 
L 318.405818 269.10069 
L 320.570182 276.054099 
L 322.734545 281.760974 
L 324.898909 286.437677 
L 327.063273 290.267858 
L 329.227636 293.403428 
L 331.392 295.968303 
L 333.556364 298.061106 
L 335.720727 299.754771 
L 337.885091 301.090921 
L 340.049455 302.066729 
L 341.131636 302.401294 
L 342.213818 302.613361 
L 343.296 302.679702 
L 344.378182 302.569981 
L 345.460364 302.246651 
L 346.542545 301.665425 
L 347.624727 300.776493 
L 348.706909 299.526514 
L 349.789091 297.861352 
L 350.871273 295.72938 
L 351.953455 293.08508 
L 353.035636 289.892588 
L 354.117818 286.128862 
L 355.2 281.78625 
L 356.282182 276.874372 
L 358.446545 265.475431 
L 360.610909 252.40314 
L 364.939636 225.135532 
L 366.021818 219.238944 
L 367.104 214.264828 
L 368.186182 210.539873 
L 369.268364 208.374153 
L 370.350545 208.002982 
L 371.432727 209.516448 
L 372.514909 212.803927 
L 373.597091 217.551094 
L 375.761455 229.594137 
L 379.008 248.164224 
L 381.172364 258.700309 
L 383.336727 267.493579 
L 385.501091 274.739333 
L 387.665455 280.685093 
L 389.829818 285.557244 
L 391.994182 289.547478 
L 394.158545 292.814339 
L 396.322909 295.487474 
L 398.487273 297.671077 
L 398.487273 297.671077 
" style="fill:none;stroke:#61d152;stroke-linecap:square;stroke-width:1.5;"/>
   </g>
   <g id="line2d_30">
    <path clip-path="url(#p58be12b0a4)" d="M 73.832727 307.584 
L 74.914909 296.79191 
L 75.997091 293.273996 
L 77.079273 291.38852 
L 78.161455 290.242621 
L 79.243636 289.519518 
L 80.325818 289.06871 
L 81.408 288.806684 
L 83.572364 288.659552 
L 85.736727 288.825184 
L 94.394182 289.978311 
L 96.558545 289.933471 
L 98.722909 289.655963 
L 100.887273 289.161848 
L 107.380364 287.327504 
L 109.544727 287.083003 
L 111.709091 287.215641 
L 113.873455 287.72422 
L 116.037818 288.515642 
L 121.448727 290.69668 
L 123.613091 291.22141 
L 124.695273 291.337459 
L 125.777455 291.336718 
L 126.859636 291.207877 
L 127.941818 290.943283 
L 129.024 290.540276 
L 131.188364 289.342875 
L 133.352727 287.754031 
L 136.599273 285.333053 
L 137.681455 284.734185 
L 138.763636 284.329018 
L 139.845818 284.155146 
L 140.928 284.231115 
L 142.010182 284.553954 
L 143.092364 285.100468 
L 144.174545 285.83193 
L 146.338909 287.656524 
L 150.667636 291.488908 
L 152.832 292.958006 
L 153.914182 293.491458 
L 154.996364 293.858185 
L 156.078545 294.031954 
L 157.160727 293.985271 
L 158.242909 293.690554 
L 159.325091 293.122295 
L 160.407273 292.260217 
L 161.489455 291.093463 
L 162.571636 289.625734 
L 163.653818 287.881154 
L 165.818182 283.794939 
L 167.982545 279.620337 
L 169.064727 277.866815 
L 170.146909 276.547182 
L 171.229091 275.787602 
L 172.311273 275.656204 
L 173.393455 276.147294 
L 174.475636 277.184298 
L 175.557818 278.641417 
L 177.722182 282.250828 
L 180.968727 287.818175 
L 183.133091 291.025471 
L 185.297455 293.692189 
L 187.461818 295.788291 
L 188.544 296.605782 
L 189.626182 297.251253 
L 190.708364 297.702983 
L 191.790545 297.932298 
L 192.872727 297.903815 
L 193.954909 297.576399 
L 195.037091 296.904894 
L 196.119273 295.842723 
L 197.201455 294.345371 
L 198.283636 292.374751 
L 199.365818 289.904463 
L 200.448 286.925969 
L 201.530182 283.45577 
L 203.694545 275.280473 
L 206.941091 262.061372 
L 208.023273 258.319419 
L 209.105455 255.387167 
L 210.187636 253.522879 
L 211.269818 252.89345 
L 212.352 253.526182 
L 213.434182 255.292432 
L 214.516364 257.938766 
L 216.680727 264.649065 
L 218.845091 271.625931 
L 221.009455 277.878885 
L 223.173818 283.169369 
L 225.338182 287.552958 
L 227.502545 291.156705 
L 229.666909 294.106408 
L 231.831273 296.505439 
L 233.995636 298.423932 
L 236.16 299.884502 
L 237.242182 300.432066 
L 238.324364 300.841169 
L 239.406545 301.091203 
L 240.488727 301.15438 
L 241.570909 300.995579 
L 242.653091 300.572771 
L 243.735273 299.838151 
L 244.817455 298.740067 
L 245.899636 297.225713 
L 246.981818 295.244466 
L 248.064 292.751612 
L 249.146182 289.712217 
L 250.228364 286.104861 
L 251.310545 281.925141 
L 252.392727 277.188959 
L 254.557091 266.232466 
L 259.968 235.776927 
L 261.050182 230.852973 
L 262.132364 227.014853 
L 263.214545 224.571739 
L 264.296727 223.75697 
L 265.378909 224.662005 
L 266.461091 227.18826 
L 267.543273 231.049815 
L 269.707636 241.127531 
L 272.954182 256.882785 
L 275.118545 265.858645 
L 277.282909 273.357941 
L 279.447273 279.540438 
L 281.611636 284.614831 
L 283.776 288.773228 
L 285.940364 292.178477 
L 288.104727 294.964702 
L 290.269091 297.239582 
L 292.433455 299.084335 
L 294.597818 300.548817 
L 296.762182 301.639353 
L 297.844364 302.029541 
L 298.926545 302.298148 
L 300.008727 302.423657 
L 301.090909 302.377507 
L 302.173091 302.123875 
L 303.255273 301.620031 
L 304.337455 300.81739 
L 305.419636 299.663345 
L 306.501818 298.103865 
L 307.584 296.086716 
L 308.666182 293.565033 
L 309.748364 290.500936 
L 310.830545 286.86886 
L 311.912727 282.658343 
L 312.994909 277.876196 
L 315.159273 266.720341 
L 317.323636 253.862373 
L 321.652364 227.004439 
L 322.734545 221.2378 
L 323.816727 216.416629 
L 324.898909 212.868513 
L 325.981091 210.896589 
L 327.063273 210.718781 
L 328.145455 212.398141 
L 329.227636 215.794124 
L 330.309818 220.57081 
L 332.474182 232.435689 
L 334.638545 244.725925 
L 336.802909 255.725439 
L 338.967273 265.012877 
L 341.131636 272.69551 
L 343.296 279.007829 
L 345.460364 284.182662 
L 347.624727 288.421564 
L 349.789091 291.892426 
L 351.953455 294.733069 
L 354.117818 297.054969 
L 356.282182 298.944882 
L 358.446545 300.462499 
L 360.610909 301.631891 
L 362.775273 302.424686 
L 363.857455 302.650724 
L 364.939636 302.735706 
L 366.021818 302.650362 
L 367.104 302.358196 
L 368.186182 301.815859 
L 369.268364 300.974241 
L 370.350545 299.780343 
L 371.432727 298.179905 
L 372.514909 296.120637 
L 373.597091 293.555785 
L 374.679273 290.447708 
L 375.761455 286.771111 
L 376.843636 282.515694 
L 377.925818 277.68811 
L 380.090182 266.435622 
L 382.254545 253.453261 
L 386.583273 225.998831 
L 387.665455 219.927715 
L 388.747636 214.709989 
L 389.829818 210.669979 
L 390.912 208.126034 
L 391.994182 207.337212 
L 393.076364 208.43379 
L 394.158545 211.354696 
L 395.240727 215.829057 
L 396.322909 221.42751 
L 398.487273 234.116238 
L 398.487273 234.116238 
" style="fill:none;stroke:#61a6de;stroke-linecap:square;stroke-width:1.5;"/>
   </g>
   <g id="patch_22">
    <path d="M 57.6 307.584 
L 57.6 199.191273 
" style="fill:none;stroke:#000000;stroke-linecap:square;stroke-linejoin:miter;stroke-width:0.8;"/>
   </g>
   <g id="patch_23">
    <path d="M 414.72 307.584 
L 414.72 199.191273 
" style="fill:none;stroke:#000000;stroke-linecap:square;stroke-linejoin:miter;stroke-width:0.8;"/>
   </g>
   <g id="patch_24">
    <path d="M 57.6 307.584 
L 414.72 307.584 
" style="fill:none;stroke:#000000;stroke-linecap:square;stroke-linejoin:miter;stroke-width:0.8;"/>
   </g>
   <g id="patch_25">
    <path d="M 57.6 199.191273 
L 414.72 199.191273 
" style="fill:none;stroke:#000000;stroke-linecap:square;stroke-linejoin:miter;stroke-width:0.8;"/>
   </g>
   <g id="legend_1">
    <g id="line2d_31">
     <path d="M 82.2272 211.579977 
L 98.2272 211.579977 
" style="fill:none;stroke:#ffbf2b;stroke-linecap:square;stroke-width:1.5;"/>
    </g>
    <g id="line2d_32"/>
    <g id="text_17">
     <!-- tetR -->
     <defs>
      <path d="M 44.390625 34.1875 
Q 47.5625 33.109375 50.5625 29.59375 
Q 53.5625 26.078125 56.59375 19.921875 
L 66.609375 0 
L 56 0 
L 46.6875 18.703125 
Q 43.0625 26.03125 39.671875 28.421875 
Q 36.28125 30.8125 30.421875 30.8125 
L 19.671875 30.8125 
L 19.671875 0 
L 9.8125 0 
L 9.8125 72.90625 
L 32.078125 72.90625 
Q 44.578125 72.90625 50.734375 67.671875 
Q 56.890625 62.453125 56.890625 51.90625 
Q 56.890625 45.015625 53.6875 40.46875 
Q 50.484375 35.9375 44.390625 34.1875 
z
M 19.671875 64.796875 
L 19.671875 38.921875 
L 32.078125 38.921875 
Q 39.203125 38.921875 42.84375 42.21875 
Q 46.484375 45.515625 46.484375 51.90625 
Q 46.484375 58.296875 42.84375 61.546875 
Q 39.203125 64.796875 32.078125 64.796875 
z
" id="DejaVuSans-52"/>
     </defs>
     <g transform="translate(104.6272 214.379977)scale(0.08 -0.08)">
      <use xlink:href="#DejaVuSans-74"/>
      <use x="39.208984" xlink:href="#DejaVuSans-65"/>
      <use x="100.732422" xlink:href="#DejaVuSans-74"/>
      <use x="139.941406" xlink:href="#DejaVuSans-52"/>
     </g>
    </g>
    <g id="line2d_33">
     <path d="M 82.2272 220.522477 
L 98.2272 220.522477 
" style="fill:none;stroke:#61d152;stroke-linecap:square;stroke-width:1.5;"/>
    </g>
    <g id="line2d_34"/>
    <g id="text_18">
     <!-- lacI -->
     <defs>
      <path d="M 9.421875 75.984375 
L 18.40625 75.984375 
L 18.40625 0 
L 9.421875 0 
z
" id="DejaVuSans-6c"/>
      <path d="M 9.8125 72.90625 
L 19.671875 72.90625 
L 19.671875 0 
L 9.8125 0 
z
" id="DejaVuSans-49"/>
     </defs>
     <g transform="translate(104.6272 223.322477)scale(0.08 -0.08)">
      <use xlink:href="#DejaVuSans-6c"/>
      <use x="27.783203" xlink:href="#DejaVuSans-61"/>
      <use x="89.0625" xlink:href="#DejaVuSans-63"/>
      <use x="144.042969" xlink:href="#DejaVuSans-49"/>
     </g>
    </g>
    <g id="line2d_35">
     <path d="M 82.2272 229.464977 
L 98.2272 229.464977 
" style="fill:none;stroke:#61a6de;stroke-linecap:square;stroke-width:1.5;"/>
    </g>
    <g id="line2d_36"/>
    <g id="text_19">
     <!-- gamma -->
     <defs>
      <path d="M 45.40625 27.984375 
Q 45.40625 37.75 41.375 43.109375 
Q 37.359375 48.484375 30.078125 48.484375 
Q 22.859375 48.484375 18.828125 43.109375 
Q 14.796875 37.75 14.796875 27.984375 
Q 14.796875 18.265625 18.828125 12.890625 
Q 22.859375 7.515625 30.078125 7.515625 
Q 37.359375 7.515625 41.375 12.890625 
Q 45.40625 18.265625 45.40625 27.984375 
z
M 54.390625 6.78125 
Q 54.390625 -7.171875 48.1875 -13.984375 
Q 42 -20.796875 29.203125 -20.796875 
Q 24.46875 -20.796875 20.265625 -20.09375 
Q 16.0625 -19.390625 12.109375 -17.921875 
L 12.109375 -9.1875 
Q 16.0625 -11.328125 19.921875 -12.34375 
Q 23.78125 -13.375 27.78125 -13.375 
Q 36.625 -13.375 41.015625 -8.765625 
Q 45.40625 -4.15625 45.40625 5.171875 
L 45.40625 9.625 
Q 42.625 4.78125 38.28125 2.390625 
Q 33.9375 0 27.875 0 
Q 17.828125 0 11.671875 7.65625 
Q 5.515625 15.328125 5.515625 27.984375 
Q 5.515625 40.671875 11.671875 48.328125 
Q 17.828125 56 27.875 56 
Q 33.9375 56 38.28125 53.609375 
Q 42.625 51.21875 45.40625 46.390625 
L 45.40625 54.6875 
L 54.390625 54.6875 
z
" id="DejaVuSans-67"/>
     </defs>
     <g transform="translate(104.6272 232.264977)scale(0.08 -0.08)">
      <use xlink:href="#DejaVuSans-67"/>
      <use x="63.476562" xlink:href="#DejaVuSans-61"/>
      <use x="124.755859" xlink:href="#DejaVuSans-6d"/>
      <use x="222.167969" xlink:href="#DejaVuSans-6d"/>
      <use x="319.580078" xlink:href="#DejaVuSans-61"/>
     </g>
    </g>
   </g>
  </g>
 </g>
 <defs>
  <clipPath id="pd085748177">
   <rect height="108.392727" width="357.12" x="57.6" y="69.12"/>
  </clipPath>
  <clipPath id="p58be12b0a4">
   <rect height="108.392727" width="357.12" x="57.6" y="199.191273"/>
  </clipPath>
 </defs>
</svg>
