<svg version="1.1" xmlns="http://www.w3.org/2000/svg" width="680" height="190"  xmlns:parametric="https://parametric-svg.github.io/v0.2" glyphtype="Aptamer" soterms="SO:0000031" parametric:defaults="totalWidth:0; height:45; box_size:33; offset:7.5; rectSize:30; othersize:16">

<rect class="bounding-box" id="bounding-box" x="6.46" y="4.821" width="23.005" height="26.103" style="fill:none;stroke:rgb(153,153,153);stroke-opacity:0.5;stroke-width:0.4px;stroke-dasharray:1,0.5;"/>

<path class="baseline" id="baseline" d="M-0.066,30.99L36.056,30.99" style="fill:none;stroke:rgb(153,153,153);stroke-opacity:0.5;stroke-width:0.4px;stroke-dasharray:1,0.5;"/>

<path class="filled-path" id="aptamer" d="M14.684,31.144L14.684,21.891C17.286,21.221 19.212,18.864 19.212,16.052C19.212,15.438 19.119,14.846 18.948,14.287L24.424,11.126C24.849,11.355 25.328,11.496 25.845,11.496C27.512,11.496 28.863,10.145 28.863,8.478C28.863,6.811 27.512,5.459 25.845,5.459C24.177,5.459 22.827,6.811 22.827,8.478C22.827,8.505 22.834,8.531 22.835,8.558L17.366,11.714C16.28,10.664 14.804,10.016 13.173,10.016C9.84,10.016 7.137,12.718 7.137,16.052C7.137,18.864 9.062,21.221 11.664,21.891L11.664,31.144" parametric:d="M14.684,31.144L14.684,21.891C17.286,21.221 19.212,18.864 19.212,16.052C19.212,15.438 19.119,14.846 18.948,14.287L24.424,11.126C24.849,11.355 25.328,11.496 25.845,11.496C27.512,11.496 28.863,10.145 28.863,8.478C28.863,6.811 27.512,5.459 25.845,5.459C24.177,5.459 22.827,6.811 22.827,8.478C22.827,8.505 22.834,8.531 22.835,8.558L17.366,11.714C16.28,10.664 14.804,10.016 13.173,10.016C9.84,10.016 7.137,12.718 7.137,16.052C7.137,18.864 9.062,21.221 11.664,21.891L11.664,31.144" style="fill:rgb(204,204,204);fill-rule:nonzero;stroke:black;stroke-width:1.21px;"/>

</svg>
