<svg version="1.1" xmlns="http://www.w3.org/2000/svg" width="680" height="190"  xmlns:parametric="https://parametric-svg.github.io/v0.2" glyphtype="Promoter" soterms="SO:0000167" parametric:defaults="totalWidth:0; height:45; box_size:33; offset:7.5; rectSize:30; othersize:16">

<path class="baseline" style="opacity:1; fill:#cccccc; fill-opacity:1; stroke:#b3b3b3; stroke-width:0.49999994; stroke-dasharray:0.99999988, 0.49999994; stroke-dashoffset:0; stroke-opacity:1" d="m -0.10593219,39.025419 45.23304619,0" id="path4741" parametric:y="0" parametric:d="m {height},0"></path>

<path class="filled-path" id="macromolecule" d="M18.329,9.371C18.329,9.371 18.329,9.371 18.328,9.371C14.153,9.371 10.718,12.807 10.718,16.981C10.718,16.982 10.718,16.982 10.718,16.982C10.72,18.463 11.154,19.913 11.968,21.151C10.831,21.538 10.062,22.612 10.06,23.813C10.061,25.358 11.331,26.628 12.876,26.629C14.311,26.629 15.528,25.533 15.677,24.105C16.525,24.424 17.423,24.589 18.329,24.591C22.504,24.592 25.939,21.157 25.94,16.982C25.94,16.982 25.94,16.982 25.94,16.981C25.94,12.807 22.504,9.371 18.329,9.371C18.329,9.371 18.329,9.371 18.329,9.371Z" parametric:d="M18.329,9.371C18.329,9.371 18.329,9.371 18.328,9.371C14.153,9.371 10.718,12.807 10.718,16.981C10.718,16.982 10.718,16.982 10.718,16.982C10.72,18.463 11.154,19.913 11.968,21.151C10.831,21.538 10.062,22.612 10.06,23.813C10.061,25.358 11.331,26.628 12.876,26.629C14.311,26.629 15.528,25.533 15.677,24.105C16.525,24.424 17.423,24.589 18.329,24.591C22.504,24.592 25.939,21.157 25.94,16.982C25.94,16.982 25.94,16.982 25.94,16.981C25.94,12.807 22.504,9.371 18.329,9.371C18.329,9.371 18.329,9.371 18.329,9.371Z"/>

<rect class="bounding-box" style="opacity:0.5;fill:none;fill-opacity:1;stroke:#999999;stroke-width:0.5;stroke-miterlimit:4;stroke-dasharray:1, 0.50000000000000000;stroke-dashoffset:0;stroke-opacity:1" id="bounding_box" width="33" height="33" x="5.7203383" y="5.8050842" parametric:width="{box_size}" parametric:height="{box_size}"></rect>

</svg>